<svg width="370" height="18" viewBox="0 0 370 18" fill="none" xmlns="http://www.w3.org/2000/svg">
<g clip-path="url(#clip0_924_4099)">
<path d="M368.037 0.669922H334.668C334.408 0.669922 334.158 0.775279 333.975 0.962815C333.79 1.15035 333.687 1.40471 333.687 1.66992V16.3299C333.687 16.5951 333.79 16.8495 333.975 17.037C334.158 17.2246 334.408 17.3299 334.668 17.3299H368.037C368.297 17.3299 368.547 17.2246 368.731 17.037C368.916 16.8495 369.019 16.5951 369.019 16.3299V1.66992C369.019 1.40471 368.916 1.15035 368.731 0.962815C368.547 0.775279 368.297 0.669922 368.037 0.669922Z" fill="white" stroke="#E0E0E0" stroke-width="0.67"/>
<path d="M348.654 6.81002H347.358V7.81002H348.87V8.25002H346.819V5.00002H348.85V5.45002H347.358V6.34002H348.654V6.81002ZM351.068 7.49002H349.851L349.596 8.23002H349.037L350.224 5.00002H350.705L351.893 8.20002H351.353L351.068 7.49002ZM350.008 7.00002H350.921L350.46 5.67002L350.008 7.00002ZM353.934 7.37002C353.937 7.30709 353.924 7.2444 353.899 7.18706C353.873 7.12971 353.835 7.07933 353.787 7.04002C353.625 6.93811 353.45 6.86063 353.267 6.81002C353.052 6.75461 352.847 6.66698 352.658 6.55002C352.531 6.48147 352.425 6.37928 352.351 6.25429C352.276 6.1293 352.237 5.98615 352.236 5.84002C352.233 5.71641 352.26 5.59392 352.313 5.48264C352.366 5.37136 352.443 5.27449 352.54 5.20002C352.769 5.04698 353.043 4.97657 353.316 5.00002C353.515 4.99611 353.712 5.03709 353.895 5.12002C354.063 5.19814 354.205 5.32292 354.307 5.48002C354.405 5.62741 354.456 5.80193 354.454 5.98002H353.905C353.909 5.90705 353.899 5.83379 353.871 5.76608C353.844 5.69837 353.801 5.63808 353.747 5.59002C353.688 5.53624 353.617 5.49525 353.541 5.46949C353.466 5.44373 353.385 5.43371 353.306 5.44002C353.159 5.43119 353.013 5.47351 352.894 5.56002C352.846 5.59933 352.806 5.64971 352.781 5.70706C352.755 5.7644 352.743 5.82709 352.746 5.89002C352.749 5.9473 352.765 6.00315 352.793 6.05337C352.819 6.1036 352.857 6.1469 352.903 6.18002C353.068 6.28283 353.246 6.36033 353.433 6.41002C353.64 6.46645 353.838 6.55052 354.022 6.66002C354.137 6.75114 354.231 6.86729 354.297 7.00002C354.371 7.13071 354.408 7.27936 354.405 7.43002C354.408 7.55236 354.382 7.67373 354.329 7.78354C354.276 7.89335 354.198 7.98828 354.101 8.06002C353.864 8.23231 353.577 8.31699 353.286 8.30002C353.07 8.30326 352.855 8.25891 352.658 8.17002C352.481 8.093 352.328 7.96857 352.216 7.81002C352.109 7.6589 352.055 7.4762 352.059 7.29002H352.599C352.595 7.36911 352.609 7.44807 352.639 7.52085C352.67 7.59364 352.717 7.65834 352.776 7.71002C352.924 7.81816 353.104 7.87112 353.286 7.86002C353.439 7.87026 353.591 7.82802 353.718 7.74002C353.772 7.70398 353.816 7.65503 353.847 7.59748C353.877 7.53994 353.894 7.47557 353.895 7.41002L353.934 7.37002ZM355.985 6.51002L356.672 5.00002H357.241L356.191 7.00002V8.23002H355.642V7.06002L354.592 5.06002H355.19L355.985 6.51002ZM360.588 6.77002H359.293V7.77002H360.804V8.21002H358.714V5.00002H360.755V5.45002H359.253V6.34002H360.549L360.588 6.77002ZM361.913 5.00002L362.826 7.46002L363.729 5.00002H364.435V8.20002H363.886V7.18002L363.945 5.77002L363.012 8.23002H362.62L361.697 5.77002L361.756 7.18002V8.23002H361.167V5.00002H361.913ZM365.652 8.20002H365.093V5.00002H365.633L365.652 8.20002ZM349.321 11.69C349.329 11.9718 349.275 12.2518 349.164 12.51C349.069 12.737 348.908 12.9289 348.703 13.06C348.499 13.1857 348.264 13.2514 348.026 13.25C347.784 13.2502 347.547 13.1846 347.339 13.06C347.139 12.9276 346.979 12.7405 346.877 12.52C346.768 12.2648 346.715 11.9884 346.72 11.71V11.53C346.714 11.2451 346.768 10.9621 346.877 10.7C346.976 10.475 347.136 10.2839 347.339 10.15C347.541 10.0197 347.776 9.95356 348.016 9.96002C348.258 9.95396 348.497 10.02 348.703 10.15C348.904 10.2781 349.062 10.4668 349.154 10.69C349.269 10.9473 349.326 11.2274 349.321 11.51V11.69ZM348.781 11.52C348.8 11.2345 348.727 10.9504 348.575 10.71C348.515 10.6167 348.431 10.5409 348.333 10.4901C348.235 10.4393 348.126 10.4151 348.016 10.42C347.908 10.4178 347.801 10.4432 347.705 10.4938C347.609 10.5445 347.527 10.6188 347.466 10.71C347.319 10.9453 347.246 11.2213 347.26 11.5V11.69C347.243 11.9754 347.315 12.2591 347.466 12.5C347.531 12.589 347.615 12.6612 347.713 12.711C347.81 12.7608 347.917 12.7867 348.026 12.7867C348.135 12.7867 348.242 12.7608 348.339 12.711C348.436 12.6612 348.52 12.589 348.585 12.5C348.729 12.2528 348.798 11.9672 348.781 11.68V11.52ZM350.411 12.02V13.2H349.861V10H351.068C351.37 9.9862 351.667 10.0858 351.902 10.28C352.002 10.3744 352.082 10.4889 352.136 10.6163C352.19 10.7437 352.217 10.8812 352.216 11.02C352.223 11.1572 352.199 11.2941 352.147 11.4206C352.094 11.547 352.013 11.6596 351.912 11.75C351.669 11.9428 351.366 12.0388 351.058 12.02H350.411ZM350.411 11.57H351.068C351.227 11.5813 351.385 11.5313 351.51 11.43C351.564 11.3799 351.606 11.3179 351.633 11.2486C351.661 11.1792 351.672 11.1045 351.667 11.03C351.671 10.9527 351.659 10.8753 351.633 10.8029C351.605 10.7306 351.564 10.6648 351.51 10.61C351.389 10.5055 351.236 10.4487 351.078 10.45H350.371L350.411 11.57ZM354.955 10.45H353.973V13.2H353.433V10.48H352.452V10H354.935L354.955 10.45ZM355.936 13.2H355.396V10H355.936V13.2ZM359.116 11.69C359.124 11.9718 359.07 12.2518 358.959 12.51C358.861 12.735 358.7 12.9261 358.498 13.06C358.293 13.1857 358.059 13.2514 357.82 13.25C357.579 13.2502 357.342 13.1846 357.133 13.06C356.933 12.9276 356.773 12.7405 356.672 12.52C356.562 12.2648 356.509 11.9884 356.515 11.71V11.53C356.508 11.2451 356.562 10.9621 356.672 10.7C356.77 10.475 356.93 10.2839 357.133 10.15C357.336 10.0197 357.571 9.95356 357.811 9.96002C358.052 9.9551 358.291 10.021 358.498 10.15C358.699 10.2781 358.857 10.4668 358.949 10.69C359.064 10.9473 359.121 11.2274 359.116 11.51V11.69ZM358.566 11.52C358.588 11.2356 358.519 10.9516 358.37 10.71C358.309 10.6167 358.226 10.5409 358.128 10.4901C358.029 10.4393 357.921 10.4151 357.811 10.42C357.703 10.4178 357.596 10.4432 357.5 10.4938C357.403 10.5445 357.322 10.6188 357.261 10.71C357.114 10.9453 357.041 11.2213 357.055 11.5V11.69C357.037 11.9754 357.11 12.2591 357.261 12.5C357.322 12.5934 357.405 12.6692 357.503 12.72C357.602 12.7708 357.711 12.7949 357.82 12.79C357.927 12.7952 358.034 12.7722 358.131 12.7232C358.227 12.6741 358.309 12.6008 358.37 12.51C358.519 12.2648 358.588 11.9776 358.566 11.69V11.52ZM362.149 13.23H361.609L360.186 11V13.27H359.636V10H360.186L361.589 12.28V10H362.149V13.23ZM364.435 12.41C364.438 12.3471 364.425 12.2844 364.4 12.2271C364.374 12.1697 364.336 12.1193 364.288 12.08C364.126 11.9781 363.951 11.9006 363.768 11.85C363.553 11.7946 363.348 11.707 363.159 11.59C363.033 11.5215 362.927 11.4193 362.852 11.2943C362.778 11.1693 362.738 11.0262 362.737 10.88C362.734 10.7564 362.761 10.6339 362.814 10.5226C362.867 10.4114 362.944 10.3145 363.042 10.24C363.272 10.0626 363.558 9.97409 363.846 9.99002C364.046 9.98611 364.243 10.0271 364.425 10.11C364.592 10.1853 364.733 10.3109 364.828 10.47C364.93 10.6152 364.982 10.7913 364.975 10.97H364.435C364.44 10.897 364.429 10.8238 364.402 10.7561C364.374 10.6884 364.332 10.6281 364.278 10.58C364.218 10.5262 364.148 10.4853 364.072 10.4595C363.997 10.4337 363.916 10.4237 363.837 10.43C363.689 10.4212 363.544 10.4635 363.424 10.55C363.376 10.5893 363.337 10.6397 363.312 10.6971C363.286 10.7544 363.274 10.8171 363.277 10.88C363.277 10.9378 363.292 10.9945 363.319 11.0451C363.347 11.0958 363.386 11.1387 363.434 11.17C363.599 11.2728 363.777 11.3503 363.964 11.4C364.17 11.4564 364.369 11.5405 364.553 11.65C364.685 11.7325 364.795 11.8455 364.877 11.98C364.951 12.1107 364.988 12.2594 364.985 12.41C364.986 12.532 364.959 12.6525 364.906 12.7619C364.853 12.8713 364.776 12.9666 364.681 13.04C364.444 13.2123 364.157 13.297 363.866 13.28C363.65 13.2842 363.435 13.2398 363.238 13.15C363.059 13.0768 362.905 12.9516 362.796 12.79C362.689 12.6389 362.634 12.4562 362.639 12.27H363.179C363.175 12.3491 363.189 12.4281 363.219 12.5009C363.25 12.5736 363.297 12.6383 363.356 12.69C363.503 12.7997 363.684 12.8528 363.866 12.84C364.016 12.852 364.165 12.8095 364.288 12.72C364.337 12.6855 364.377 12.6391 364.405 12.5851C364.432 12.531 364.446 12.4709 364.445 12.41H364.435Z" fill="#4E4E4E"/>
<path fill-rule="evenodd" clip-rule="evenodd" d="M342.962 5.84V5H342.196V5.84H339.114V5H338.339V5.84H337.956C337.852 5.84387 337.749 5.86867 337.654 5.91299C337.559 5.95731 337.473 6.02028 337.403 6.0983C337.331 6.17632 337.276 6.26785 337.24 6.36766C337.203 6.46748 337.187 6.57361 337.191 6.68V12.16C337.186 12.3758 337.263 12.5851 337.409 12.7423C337.554 12.8996 337.754 12.9922 337.966 13H343.354C343.566 12.9922 343.766 12.8996 343.912 12.7423C344.056 12.5851 344.134 12.3758 344.129 12.16V6.68C344.134 6.46418 344.056 6.25494 343.912 6.09768C343.766 5.94042 343.566 5.84783 343.354 5.84H342.962ZM337.956 12.16V7.53H343.344V12.16H337.956Z" fill="#212121"/>
<path d="M339.791 9.8999C339.986 9.8999 340.175 9.84125 340.337 9.73137C340.498 9.62149 340.624 9.46531 340.698 9.28259C340.773 9.09986 340.793 8.89879 340.754 8.70481C340.716 8.51083 340.623 8.33265 340.485 8.1928C340.348 8.05294 340.173 7.9577 339.983 7.91912C339.792 7.88053 339.595 7.90034 339.417 7.97602C339.237 8.05171 339.084 8.17988 338.976 8.34433C338.868 8.50878 338.81 8.70212 338.81 8.8999C338.81 9.16512 338.914 9.41947 339.098 9.60701C339.282 9.79455 339.531 9.8999 339.791 9.8999Z" fill="#212121"/>
<path d="M341.332 11.79C341.527 11.79 341.716 11.7314 341.878 11.6215C342.039 11.5116 342.165 11.3554 342.239 11.1727C342.314 10.99 342.332 10.7889 342.295 10.5949C342.257 10.401 342.164 10.2228 342.026 10.0829C341.889 9.94308 341.714 9.84784 341.524 9.80925C341.333 9.77067 341.136 9.79047 340.957 9.86616C340.778 9.94185 340.624 10.07 340.517 10.2345C340.409 10.3989 340.351 10.5923 340.351 10.79C340.351 11.0553 340.454 11.3096 340.639 11.4971C340.822 11.6847 341.072 11.79 341.332 11.79Z" fill="#212121"/>
<path d="M341.303 8.58008L339.684 11.1401" stroke="#212121" stroke-width="0.63" stroke-linecap="square"/>
<path d="M327.475 0.669922H294.106C293.846 0.669922 293.595 0.775279 293.412 0.962815C293.227 1.15035 293.124 1.40471 293.124 1.66992V16.3299C293.124 16.5951 293.227 16.8495 293.412 17.037C293.595 17.2246 293.846 17.3299 294.106 17.3299H327.475C327.735 17.3299 327.984 17.2246 328.168 17.037C328.353 16.8495 328.456 16.5951 328.456 16.3299V1.66992C328.456 1.40471 328.353 1.15035 328.168 0.962815C327.984 0.775279 327.735 0.669922 327.475 0.669922Z" fill="white" stroke="#E0E0E0" stroke-width="0.67"/>
<path d="M306.668 7.18981C306.65 7.49543 306.516 7.78196 306.295 7.9898C306.052 8.19127 305.745 8.2945 305.432 8.2798C305.2 8.28478 304.972 8.22233 304.774 8.09981C304.583 7.97115 304.43 7.79122 304.332 7.57981C304.222 7.33507 304.166 7.06901 304.166 6.79981V6.50981C304.164 6.23498 304.217 5.96265 304.323 5.70981C304.425 5.49211 304.587 5.30923 304.789 5.18324C304.991 5.05725 305.225 4.99354 305.461 4.99981C305.765 4.98588 306.063 5.08946 306.295 5.28981C306.517 5.50072 306.651 5.79091 306.668 6.09981H306.119C306.115 5.9145 306.045 5.73697 305.922 5.59981C305.794 5.49093 305.628 5.43717 305.461 5.44981C305.354 5.44445 305.248 5.46635 305.153 5.51351C305.057 5.56068 304.973 5.6316 304.911 5.71981C304.771 5.95031 304.702 6.21881 304.715 6.4898V6.77981C304.702 7.05581 304.767 7.32976 304.902 7.56981C304.96 7.65779 305.039 7.72896 305.131 7.7763C305.225 7.82364 305.328 7.84552 305.432 7.83981C305.605 7.85562 305.777 7.80179 305.913 7.68981C306.04 7.55936 306.114 7.38399 306.119 7.19981L306.668 7.18981ZM308.916 7.4898H307.699L307.444 8.2298H306.874L308.062 4.99981H308.553L309.74 8.19981H309.151L308.916 7.4898ZM307.846 6.99981H308.759L308.307 5.66981L307.846 6.99981ZM311.772 7.36981C311.773 7.3072 311.759 7.24523 311.733 7.18823C311.709 7.13123 311.671 7.08057 311.624 7.03981C311.46 6.938 311.281 6.86056 311.094 6.80981C310.883 6.75665 310.68 6.66884 310.496 6.54981C310.368 6.48174 310.26 6.37993 310.185 6.25503C310.108 6.13013 310.067 5.98672 310.064 5.83981C310.061 5.71619 310.088 5.5937 310.141 5.48242C310.194 5.37115 310.271 5.27428 310.368 5.19981C310.59 5.05446 310.851 4.98444 311.114 4.99981C311.316 4.99605 311.517 5.03698 311.703 5.11981C311.866 5.19674 312.005 5.31781 312.105 5.46981C312.203 5.62134 312.254 5.79875 312.253 5.97981H311.713C311.716 5.90707 311.704 5.83448 311.676 5.76712C311.649 5.69976 311.608 5.63924 311.556 5.58981C311.433 5.48401 311.275 5.43032 311.114 5.43981C310.967 5.43097 310.822 5.47329 310.702 5.55981C310.653 5.59861 310.613 5.64864 310.585 5.70592C310.558 5.7632 310.544 5.82615 310.545 5.88981C310.548 5.94833 310.564 6.00533 310.593 6.05587C310.622 6.1064 310.663 6.14895 310.712 6.17981C310.874 6.28172 311.048 6.35919 311.232 6.40981C311.438 6.46623 311.636 6.5503 311.821 6.65981C311.959 6.73746 312.074 6.85141 312.154 6.9898C312.223 7.11836 312.257 7.26339 312.253 7.40981C312.256 7.53367 312.231 7.65675 312.178 7.7683C312.125 7.87985 312.046 7.97649 311.948 8.04981C311.712 8.22209 311.424 8.30677 311.134 8.28981C310.918 8.28824 310.705 8.24409 310.506 8.15981C310.331 8.07957 310.179 7.95575 310.064 7.79981C309.957 7.64868 309.902 7.46599 309.907 7.27981H310.457C310.453 7.3589 310.466 7.43785 310.497 7.51064C310.528 7.58342 310.574 7.64813 310.633 7.69981C310.777 7.80798 310.955 7.86107 311.134 7.84981C311.287 7.86165 311.439 7.81926 311.566 7.72981C311.62 7.69674 311.665 7.64983 311.695 7.59371C311.727 7.53758 311.742 7.4742 311.742 7.40981L311.772 7.36981ZM315.285 8.1898H314.745V6.80981H313.332V8.2298H312.792V4.99981H313.332V6.36981H314.745V4.99981H315.285V8.1898ZM319.535 6.67981C319.543 6.9616 319.489 7.24163 319.378 7.49981C319.283 7.72678 319.122 7.91869 318.917 8.04981C318.711 8.17394 318.478 8.23946 318.239 8.23946C318.001 8.23946 317.767 8.17394 317.562 8.04981C317.36 7.91993 317.199 7.7321 317.101 7.50981C316.983 7.25364 316.925 6.9727 316.934 6.68981V6.54981C316.927 6.2681 316.981 5.98827 317.091 5.72981C317.189 5.50478 317.349 5.31369 317.552 5.17981C317.703 5.0798 317.874 5.01416 318.053 4.98734C318.231 4.96052 318.413 4.97316 318.586 5.02439C318.759 5.07562 318.919 5.16425 319.056 5.28425C319.193 5.40424 319.302 5.55279 319.378 5.71981C319.484 5.97942 319.538 6.25844 319.535 6.53981V6.67981ZM318.966 6.54981C318.983 6.26122 318.911 5.97439 318.759 5.72981C318.698 5.64042 318.615 5.56805 318.519 5.51918C318.424 5.4703 318.317 5.44647 318.21 5.44981C318.101 5.44657 317.994 5.47038 317.896 5.51918C317.799 5.56797 317.714 5.64027 317.65 5.72981C317.505 5.96948 317.433 6.24814 317.444 6.52981V6.71981C317.427 7.00523 317.499 7.28886 317.65 7.52981C317.713 7.62118 317.797 7.69542 317.895 7.746C317.992 7.79657 318.1 7.82192 318.21 7.81981C318.319 7.82578 318.428 7.80318 318.525 7.75415C318.623 7.70513 318.707 7.63133 318.769 7.53981C318.914 7.29258 318.982 7.00698 318.966 6.71981V6.54981ZM322.538 8.2298H321.998L320.595 5.99981V8.2298H320.055V4.99981H320.595L321.998 7.27981V4.99981H322.538V8.2298ZM304.274 13.2298V9.99981H305.226C305.483 9.99872 305.736 10.0641 305.962 10.1898C306.176 10.3177 306.349 10.505 306.462 10.7298C306.583 10.9748 306.644 11.2458 306.639 11.5198V11.6798C306.646 11.9572 306.585 12.232 306.462 12.4798C306.348 12.7073 306.171 12.8953 305.952 13.0198C305.722 13.1425 305.465 13.2044 305.206 13.1998L304.274 13.2298ZM304.813 10.4798V12.7898H305.226C305.346 12.7981 305.468 12.7781 305.58 12.7313C305.693 12.6845 305.793 12.6122 305.873 12.5198C306.042 12.294 306.126 12.0134 306.109 11.7298V11.5498C306.13 11.2688 306.054 10.9891 305.893 10.7598C305.814 10.6644 305.714 10.5893 305.602 10.5406C305.49 10.492 305.367 10.4711 305.245 10.4798H304.813ZM308.994 11.7998H307.699V12.7998H309.21V13.2398H307.188V9.99981H309.151V10.4498H307.659V11.3398H308.955L308.994 11.7998ZM310.201 12.7998H311.624V13.2398H309.662V9.99981H310.211L310.201 12.7998ZM312.616 13.2398H312.096V9.99981H312.635L312.616 13.2398ZM314.392 12.5498L315.187 10.0398H315.796L314.657 13.2398H314.137L313.008 9.99981H313.607L314.392 12.5498ZM317.984 11.7998H316.689V12.7998H318.2V13.2398H316.149V9.99981H318.18V10.4498H316.689V11.3398H317.984V11.7998ZM319.8 11.9998H319.191V13.2298H318.642V9.99981H319.751C320.049 9.98272 320.343 10.071 320.585 10.2498C320.684 10.3392 320.763 10.4504 320.814 10.5752C320.865 10.6999 320.887 10.8349 320.879 10.9698C320.881 11.1604 320.83 11.3478 320.732 11.5098C320.624 11.6573 320.478 11.7715 320.31 11.8398L321.017 13.1698H320.428L319.8 11.9998ZM319.191 11.5498H319.751C319.907 11.5626 320.062 11.5123 320.183 11.4098C320.237 11.3617 320.279 11.3015 320.306 11.2337C320.334 11.166 320.345 11.0928 320.34 11.0198C320.344 10.9478 320.334 10.8757 320.308 10.8084C320.283 10.7411 320.243 10.6801 320.192 10.6298C320.135 10.5771 320.069 10.5366 319.996 10.5108C319.923 10.4851 319.847 10.4745 319.77 10.4798H319.191V11.5498ZM322.322 11.5498L323.048 10.0298H323.647L322.597 12.0298V13.1998H322.047V12.0598L320.997 10.0598H321.596L322.322 11.5498Z" fill="#4E4E4E"/>
<path d="M297.816 8.12986L297.639 8.62986H300.181C300.127 8.93062 299.962 9.19888 299.72 9.37986C299.281 9.66134 298.766 9.79433 298.248 9.75986H297.718V10.3299C297.957 10.3287 298.193 10.3982 298.395 10.5299C298.597 10.6829 298.773 10.8687 298.915 11.0799L300.672 13.4999H301.771L299.72 10.8099C299.574 10.589 299.4 10.3903 299.199 10.2199C299.676 10.1533 300.124 9.94459 300.485 9.61986C300.763 9.35861 300.938 9.00299 300.976 8.61986H302.105L302.262 8.11986H300.986C300.967 7.87406 300.897 7.63501 300.783 7.41804C300.668 7.20106 300.51 7.01094 300.318 6.85986H302.075L302.252 6.35986H297.776L297.619 6.85986H298.512C298.948 6.83145 299.379 6.9706 299.72 7.24986C299.963 7.47903 300.114 7.79304 300.142 8.12986H297.816Z" fill="#212121"/>
<path d="M286.902 0.669922H253.533C253.273 0.669922 253.024 0.775279 252.84 0.962815C252.655 1.15035 252.552 1.40471 252.552 1.66992V16.3299C252.552 16.5951 252.655 16.8495 252.84 17.037C253.024 17.2246 253.273 17.3299 253.533 17.3299H286.902C287.162 17.3299 287.412 17.2246 287.596 17.037C287.781 16.8495 287.884 16.5951 287.884 16.3299V1.66992C287.884 1.40471 287.781 1.15035 287.596 0.962815C287.412 0.775279 287.162 0.669922 286.902 0.669922Z" fill="white" stroke="#E0E0E0" stroke-width="0.67"/>
<path d="M267.794 7.9998H267.254L265.85 5.7298V7.9998H265.311V4.7998H265.85L267.254 7.0798V4.7998H267.794V7.9998ZM270.277 6.5698H268.991V7.5698H270.493V7.9998H268.441V4.7998H270.483V5.2498H268.991V6.1298H270.277V6.5698ZM273.221 5.2498H272.239V7.9998H271.7V5.2498H270.718V4.7998H273.211L273.221 5.2498ZM265.311 12.9998V9.7998H266.38C266.669 9.77859 266.955 9.85602 267.195 10.0198C267.289 10.0973 267.364 10.197 267.411 10.3102C267.459 10.4235 267.48 10.5469 267.47 10.6698C267.47 10.8089 267.428 10.9449 267.352 11.0598C267.271 11.1831 267.155 11.2775 267.018 11.3298C267.173 11.3709 267.309 11.4665 267.401 11.5998C267.502 11.7343 267.554 11.9005 267.548 12.0698C267.556 12.1993 267.534 12.3288 267.484 12.4484C267.435 12.568 267.36 12.6746 267.264 12.7598C267.028 12.9351 266.74 13.0201 266.449 12.9998H265.311ZM265.85 11.5598V12.5598H266.459C266.604 12.5643 266.745 12.5184 266.861 12.4298C266.909 12.384 266.946 12.3279 266.97 12.2656C266.994 12.2033 267.004 12.1364 266.999 12.0698C267.01 12.0011 267.005 11.9305 266.986 11.8639C266.965 11.7973 266.93 11.7365 266.882 11.6867C266.834 11.6369 266.775 11.5994 266.71 11.5774C266.645 11.5553 266.576 11.5493 266.508 11.5598H265.85ZM265.85 11.1498H266.39C266.53 11.1573 266.67 11.1149 266.783 11.0298C266.831 10.9905 266.87 10.9401 266.896 10.8828C266.921 10.8254 266.933 10.7627 266.93 10.6998C266.936 10.6346 266.926 10.569 266.902 10.5082C266.878 10.4474 266.841 10.3932 266.793 10.3498C266.669 10.2724 266.525 10.2374 266.38 10.2498H265.85V11.1498ZM269.894 12.2598H268.687L268.432 12.9998H267.862L269.05 9.7998H269.541L270.679 12.9998H270.11L269.894 12.2598ZM268.834 11.8098H269.747L269.285 10.4798L268.834 11.8098ZM273.525 12.9998H272.976L271.582 10.7298V12.9998H271.032V9.7998H271.582L272.985 12.0798V9.7998H273.525V12.9998ZM275.066 11.6198L274.713 11.9998V12.9998H274.173V9.7998H274.713V11.2998L275.017 10.9198L275.939 9.7998H276.597L275.429 11.2198L276.666 12.9998H276.018L275.066 11.6198ZM277.529 12.9998H276.99V9.7998H277.529V12.9998ZM280.69 12.9998H280.15L278.727 10.7298V12.9998H278.177V9.7998H278.727L280.13 12.0798V9.7998H280.69V12.9998ZM283.742 12.5798C283.623 12.7424 283.459 12.8645 283.271 12.9298C283.051 13.0098 282.817 13.0471 282.584 13.0398C282.34 13.0444 282.099 12.9822 281.887 12.8598C281.68 12.7412 281.515 12.5593 281.416 12.3398C281.302 12.0928 281.245 11.8226 281.249 11.5498V11.2998C281.221 10.8926 281.343 10.4894 281.593 10.1698C281.712 10.0261 281.863 9.91379 282.034 9.84242C282.205 9.77104 282.39 9.74271 282.574 9.7598C282.874 9.7394 283.171 9.83192 283.408 10.0198C283.624 10.2147 283.758 10.487 283.781 10.7798H283.251C283.245 10.697 283.223 10.6162 283.186 10.5422C283.149 10.4681 283.098 10.4022 283.036 10.3483C282.974 10.2944 282.902 10.2536 282.824 10.2281C282.747 10.2026 282.665 10.193 282.584 10.1998C282.478 10.1944 282.372 10.2163 282.276 10.2635C282.179 10.3107 282.096 10.3816 282.034 10.4698C281.891 10.7066 281.819 10.9815 281.828 11.2598V11.5098C281.814 11.7931 281.89 12.0734 282.044 12.3098C282.114 12.4031 282.205 12.478 282.309 12.5285C282.413 12.5789 282.528 12.6033 282.643 12.5998C282.75 12.6117 282.859 12.601 282.962 12.5683C283.065 12.5357 283.16 12.4817 283.241 12.4098V11.7798H282.594V11.3598H283.781L283.742 12.5798Z" fill="#4E4E4E"/>
<path d="M258.931 4C259.183 4.01284 259.42 4.12384 259.594 4.31C259.767 4.49616 259.864 4.74322 259.864 5V6C260.465 6.06008 261.024 6.34828 261.427 6.80754C261.83 7.2668 262.05 7.86366 262.042 8.48V11.08C262.042 11.3978 261.981 11.7125 261.862 12.0061C261.742 12.2997 261.567 12.5665 261.347 12.7912C261.127 13.0159 260.865 13.1942 260.576 13.3158C260.289 13.4374 259.979 13.5 259.667 13.5C259.355 13.5 259.047 13.4374 258.759 13.3158C258.47 13.1942 258.209 13.0159 257.988 12.7912C257.767 12.5665 257.593 12.2997 257.473 12.0061C257.354 11.7125 257.292 11.3978 257.292 11.08V8.48C257.284 7.86678 257.501 7.27253 257.901 6.81375C258.3 6.35498 258.853 6.06476 259.451 6V5C259.466 4.93418 259.466 4.86582 259.451 4.8C259.431 4.73162 259.394 4.66966 259.343 4.62C259.296 4.57089 259.239 4.53328 259.177 4.51C259.109 4.49626 259.038 4.49626 258.971 4.51C258.901 4.50995 258.831 4.52429 258.766 4.55217C258.703 4.58005 258.644 4.62088 258.596 4.67224C258.548 4.72359 258.509 4.7844 258.484 4.85103C258.459 4.91766 258.447 4.98873 258.45 5.06V5.28C258.45 5.53678 258.354 5.78384 258.18 5.97C258.007 6.15616 257.769 6.26716 257.518 6.28C257.268 6.26469 257.033 6.15261 256.861 5.96671C256.691 5.78081 256.595 5.53514 256.595 5.28C256.587 5.24387 256.587 5.20613 256.595 5.17C256.613 5.13619 256.641 5.10841 256.674 5.09C256.706 5.08107 256.74 5.08107 256.772 5.09C256.807 5.07972 256.845 5.07972 256.88 5.09C256.911 5.11115 256.935 5.13951 256.953 5.17262C256.969 5.20572 256.978 5.24259 256.978 5.28C256.968 5.35502 256.973 5.4314 256.995 5.50398C257.017 5.57656 257.053 5.64367 257.101 5.70077C257.15 5.75788 257.211 5.80366 257.278 5.83503C257.345 5.8664 257.419 5.88263 257.493 5.88263C257.568 5.88263 257.642 5.8664 257.709 5.83503C257.776 5.80366 257.837 5.75788 257.886 5.70077C257.934 5.64367 257.97 5.57656 257.992 5.50398C258.014 5.4314 258.019 5.35502 258.009 5.28V5C258.009 4.74486 258.104 4.49919 258.275 4.31329C258.446 4.12739 258.681 4.01531 258.931 4ZM259.658 7C259.619 6.98833 259.578 6.98833 259.54 7C259.501 7.01732 259.464 7.04095 259.432 7.07C259.405 7.10091 259.383 7.13441 259.363 7.17C259.358 7.2132 259.358 7.2568 259.363 7.3V8.48C259.362 8.52286 259.369 8.56555 259.384 8.60553C259.399 8.64552 259.422 8.68198 259.451 8.71277C259.481 8.74355 259.516 8.76802 259.554 8.78472C259.594 8.80142 259.635 8.81002 259.677 8.81H259.795L259.893 8.74C259.924 8.70987 259.948 8.67202 259.962 8.63C259.972 8.59059 259.972 8.54941 259.962 8.51V7.4C259.972 7.35719 259.972 7.31281 259.962 7.27C259.946 7.23222 259.923 7.19818 259.893 7.17L259.795 7.1C259.757 7.091 259.716 7.091 259.677 7.1L259.658 7Z" fill="black"/>
<path d="M246.997 0.669922H217.554C217.294 0.669922 217.044 0.775279 216.86 0.962815C216.676 1.15035 216.573 1.40471 216.573 1.66992V16.3299C216.573 16.5951 216.676 16.8495 216.86 17.037C217.044 17.2246 217.294 17.3299 217.554 17.3299H246.997C247.257 17.3299 247.506 17.2246 247.691 17.037C247.875 16.8495 247.978 16.5951 247.978 16.3299V1.66992C247.978 1.40471 247.875 1.15035 247.691 0.962815C247.506 0.775279 247.257 0.669922 246.997 0.669922Z" fill="white" stroke="#E0E0E0" stroke-width="0.67"/>
<path opacity="0.94" fill-rule="evenodd" clip-rule="evenodd" d="M221.156 10.6401C221.156 10.6401 221.293 10.0201 221.666 8.64014C221.961 7.57014 222.245 6.57014 222.285 6.42014L222.373 6.14014H223.541C224.905 6.14014 225.111 6.14014 225.337 6.29014C225.72 6.49014 225.828 6.80014 225.7 7.29014C225.592 7.72984 225.321 8.10984 224.944 8.35014C224.866 8.41014 224.787 8.48014 224.787 8.50014C224.787 8.52014 224.787 8.60014 224.915 8.68014C224.986 8.7387 225.045 8.80985 225.092 8.89014C225.16 9.14205 225.16 9.40823 225.092 9.66014C225.043 9.87078 225.011 10.0847 224.993 10.3001V10.5701H224.424C224.225 10.5953 224.024 10.5953 223.826 10.5701C223.767 10.5101 223.776 10.3701 223.826 9.96014C223.875 9.55014 223.933 9.34014 223.826 9.23014C223.718 9.12014 223.61 9.05014 223.197 9.04014C222.785 9.03014 222.815 9.04014 222.766 9.04014C222.716 9.04014 222.618 9.29014 222.432 9.98014L222.275 10.5601H221.804C221.605 10.5716 221.404 10.5716 221.205 10.5601L221.156 10.6401ZM224.1 8.12014C224.375 8.04014 224.483 7.87014 224.483 7.53014C224.502 7.45811 224.502 7.38217 224.483 7.31014C224.405 7.22014 224.159 7.18014 223.698 7.21014H223.296L223.237 7.41014C223.163 7.62377 223.114 7.84518 223.089 8.07014C223.089 8.12014 223.089 8.14014 223.207 8.16014C223.535 8.1831 223.865 8.16293 224.189 8.10014L224.1 8.12014ZM225.994 10.7301C225.833 10.6746 225.698 10.556 225.622 10.4001C225.504 10.1401 225.622 9.55014 226.024 8.13014C226.122 7.79014 226.201 7.51014 226.201 7.50014C226.201 7.50014 226.328 7.50014 226.681 7.50014C226.844 7.48316 227.009 7.48316 227.172 7.50014H227.251L227.172 7.76014C226.996 8.40014 226.809 9.17014 226.78 9.42014C226.75 9.67014 226.78 9.70014 226.78 9.77014C226.78 9.84014 227.153 9.97014 227.398 9.84014C227.643 9.71014 227.732 9.57014 228.203 7.95014C228.228 7.79977 228.285 7.65668 228.37 7.53014L228.458 7.44014H228.919C229.272 7.44014 229.38 7.44014 229.39 7.44014C229.4 7.44014 228.821 9.66014 228.576 10.5101V10.6501H227.594C227.605 10.5986 227.622 10.5483 227.643 10.5001C227.741 10.2201 227.643 10.2001 227.251 10.5001C227.021 10.6946 226.734 10.8039 226.436 10.8101C226.294 10.8395 226.147 10.8395 226.004 10.8101L225.994 10.7301ZM229.282 10.6401C229.424 9.88484 229.614 9.13988 229.851 8.41014L230.47 6.20014H231.451C232.737 6.20014 233.002 6.20014 233.247 6.36014C233.418 6.42911 233.56 6.55633 233.65 6.72014C233.725 6.89322 233.764 7.08062 233.764 7.27014C233.764 7.45966 233.725 7.64706 233.65 7.82014C233.557 8.13574 233.39 8.42319 233.162 8.65695C232.934 8.89072 232.653 9.06356 232.344 9.16014C232.121 9.19796 231.894 9.22134 231.667 9.23014C230.754 9.29014 230.813 9.23014 230.764 9.40014C230.715 9.57014 230.646 9.77014 230.558 10.0801L230.401 10.6501H229.832C229.636 10.6614 229.439 10.6614 229.243 10.6501L229.282 10.6401ZM231.942 8.26014C232.055 8.25986 232.167 8.22923 232.265 8.17132C232.363 8.11341 232.444 8.03024 232.501 7.93014C232.552 7.84937 232.584 7.75764 232.595 7.6622C232.604 7.56676 232.593 7.4702 232.56 7.38014C232.472 7.24014 232.344 7.21014 231.863 7.21014C231.706 7.19625 231.549 7.19625 231.392 7.21014C231.291 7.51732 231.213 7.83146 231.157 8.15014C231.149 8.17959 231.149 8.21068 231.157 8.24014C231.411 8.27006 231.668 8.27006 231.922 8.24014L231.942 8.26014ZM233.62 10.7401C233.277 10.5901 233.188 10.3501 233.296 9.87014C233.463 9.19014 233.807 8.97014 235.004 8.77014C235.73 8.64014 235.907 8.55014 235.985 8.29014C236.064 8.03014 235.868 8.00014 235.544 8.00014C235.454 7.99255 235.365 8.00571 235.282 8.03863C235.198 8.07155 235.124 8.12336 235.063 8.19014L234.916 8.31014H234.562C234.121 8.31014 233.983 8.31014 233.983 8.24014C234.055 8.05537 234.17 7.89081 234.317 7.76014C234.506 7.59458 234.731 7.47795 234.975 7.42014C235.547 7.26719 236.148 7.26719 236.722 7.42014C236.882 7.49223 237.016 7.61487 237.104 7.77014C237.173 7.90014 237.153 8.03014 236.829 9.28014C236.682 9.90014 236.555 10.4501 236.555 10.5201V10.6301H236.192H235.691H235.554L235.495 10.4901C235.416 10.3201 235.416 10.3201 235.043 10.4901C234.775 10.633 234.481 10.7149 234.18 10.7301C234.017 10.7567 233.85 10.7359 233.699 10.6701L233.62 10.7401ZM235.21 10.0501C235.329 9.97261 235.429 9.86996 235.506 9.74917C235.582 9.62838 235.631 9.49228 235.652 9.35014V9.23014H235.465C235.182 9.27272 234.907 9.36046 234.651 9.49014C234.589 9.52931 234.536 9.58025 234.494 9.64014C234.459 9.70847 234.439 9.78342 234.435 9.86014C234.435 10.0001 234.435 10.0401 234.553 10.0801C234.768 10.1336 234.994 10.1336 235.21 10.0801V10.0501ZM236.839 12.0501C236.722 12.0501 236.722 11.9701 236.839 11.6501C236.957 11.3301 236.937 11.2201 237.212 11.1801C237.487 11.1401 237.634 11.0701 237.703 10.9401C237.795 10.1931 237.795 9.43718 237.703 8.69014C237.674 8.26729 237.674 7.84298 237.703 7.42014C237.703 7.42014 237.87 7.42014 238.262 7.42014H238.783V8.42014C238.762 8.75313 238.762 9.08714 238.783 9.42014C238.841 9.47014 239.038 9.14014 239.852 7.62014L239.96 7.40014H240.451C240.608 7.38773 240.765 7.38773 240.922 7.40014C240.922 7.40014 240.235 8.69014 239.528 9.90014C238.547 11.6301 238.341 11.9001 237.87 12.0001C237.545 12.0524 237.216 12.0691 236.888 12.0501H236.839Z" fill="#2A2C83"/>
<path fill-rule="evenodd" clip-rule="evenodd" d="M241.226 11.6698L242.6 6.58984L243.915 9.21984L241.226 11.6698Z" fill="#097A44"/>
<path fill-rule="evenodd" clip-rule="evenodd" d="M240.363 11.6899L241.746 6.60986L243.061 9.23986L240.363 11.6899Z" fill="#F46F20"/>
<path d="M210.449 1H182.124C181.803 1.00261 181.494 1.1341 181.267 1.36608C181.039 1.59806 180.91 1.91194 180.907 2.24V15.76C180.91 16.0881 181.039 16.4019 181.267 16.6339C181.494 16.8659 181.803 16.9974 182.124 17H210.449C210.77 16.9974 211.079 16.8659 211.306 16.6339C211.534 16.4019 211.663 16.0881 211.666 15.76V2.24C211.663 1.91194 211.534 1.59806 211.306 1.36608C211.079 1.1341 210.77 1.00261 210.449 1Z" fill="white"/>
<path d="M191.821 17H210.468C210.628 17.0013 210.786 16.9705 210.933 16.9093C211.081 16.848 211.215 16.7576 211.328 16.6433C211.442 16.5289 211.531 16.3929 211.593 16.243C211.654 16.0931 211.685 15.9324 211.685 15.77V10C211.685 10 204.678 14.84 191.841 17H191.821Z" fill="#F58220"/>
<path fill-rule="evenodd" clip-rule="evenodd" d="M185.55 8.43998C185.273 8.66612 184.921 8.77372 184.568 8.73998H184.372V6.30998H184.568C184.743 6.29165 184.919 6.30872 185.088 6.3602C185.256 6.41169 185.413 6.49657 185.55 6.60998C185.676 6.72336 185.778 6.86331 185.848 7.02034C185.918 7.17736 185.953 7.34777 185.952 7.51998C185.953 7.69368 185.918 7.86561 185.848 8.02427C185.779 8.18293 185.677 8.32466 185.55 8.43998ZM184.705 5.68998H183.636V9.35998H184.696C185.177 9.38407 185.651 9.23149 186.03 8.92998C186.239 8.76084 186.405 8.54634 186.521 8.3023C186.637 8.05826 186.697 7.79092 186.698 7.51998C186.696 7.26557 186.643 7.01429 186.541 6.78184C186.44 6.54939 186.291 6.34077 186.108 6.16902C185.923 5.99727 185.707 5.86609 185.47 5.78366C185.234 5.70124 184.983 5.66935 184.735 5.68998H184.705ZM187.041 5.68998H187.758V9.35998H187.041V5.68998ZM189.534 7.08998C189.102 6.93998 188.975 6.82998 188.975 6.62998C188.975 6.42998 189.2 6.22998 189.515 6.22998C189.627 6.231 189.739 6.25754 189.84 6.30768C189.942 6.35782 190.032 6.43033 190.103 6.51998L190.476 6.02998C190.173 5.76603 189.785 5.62382 189.387 5.62998C189.103 5.6078 188.823 5.70036 188.606 5.88757C188.39 6.07478 188.253 6.34154 188.229 6.62998C188.229 7.12998 188.455 7.38998 189.142 7.62998C189.314 7.68541 189.481 7.75566 189.642 7.83998C189.706 7.8801 189.76 7.9349 189.799 7.99998C189.836 8.06712 189.857 8.14278 189.858 8.21998C189.857 8.29224 189.841 8.36349 189.812 8.42937C189.782 8.49524 189.741 8.55435 189.688 8.60305C189.636 8.65175 189.574 8.68902 189.508 8.71257C189.44 8.73612 189.369 8.74545 189.299 8.73998C189.133 8.74206 188.97 8.69704 188.828 8.60998C188.688 8.5231 188.576 8.39841 188.504 8.24998L188.033 8.69998C188.17 8.92184 188.361 9.10321 188.589 9.22603C188.816 9.34885 189.071 9.40883 189.328 9.39998C189.492 9.41384 189.657 9.39282 189.813 9.33825C189.968 9.28368 190.111 9.19675 190.232 9.08298C190.353 8.96921 190.449 8.83108 190.515 8.67735C190.58 8.52363 190.614 8.35766 190.614 8.18998C190.614 7.60998 190.359 7.33998 189.534 7.03998V7.08998ZM190.839 7.51998C190.84 7.77859 190.892 8.03433 190.993 8.272C191.093 8.50967 191.239 8.72444 191.421 8.90353C191.605 9.08263 191.821 9.22241 192.058 9.31456C192.296 9.40671 192.548 9.44937 192.802 9.43998C193.119 9.44288 193.432 9.36739 193.715 9.21998V8.37998C193.604 8.50653 193.468 8.60762 193.316 8.67657C193.163 8.74552 192.999 8.78077 192.832 8.77998C192.667 8.78696 192.503 8.75922 192.349 8.6985C192.195 8.63778 192.055 8.54539 191.939 8.42711C191.822 8.30883 191.73 8.16721 191.669 8.01112C191.608 7.85503 191.579 7.68783 191.585 7.51998C191.582 7.35547 191.612 7.19207 191.672 7.03931C191.733 6.88655 191.821 6.74749 191.935 6.63021C192.048 6.51294 192.183 6.41981 192.332 6.35625C192.48 6.29269 192.64 6.25996 192.802 6.25998C192.974 6.26061 193.144 6.29734 193.301 6.3679C193.458 6.43845 193.598 6.54129 193.715 6.66998V5.82998C193.439 5.68346 193.133 5.60793 192.822 5.60998C192.313 5.60427 191.822 5.80028 191.452 6.15664C191.082 6.51299 190.862 7.00183 190.839 7.51998ZM199.594 8.14998L198.612 5.68998H197.817L199.398 9.44998H199.79L201.4 5.68998H200.615L199.633 8.14998H199.594ZM201.714 9.35998H203.775V8.73998H202.44V7.73998H203.726V7.11998H202.44V6.30998H203.775V5.68998H201.714V9.35998ZM205.188 7.35998H204.982V6.26998H205.208C205.659 6.26998 205.904 6.44998 205.904 6.80998C205.904 7.16998 205.659 7.37998 205.188 7.37998V7.35998ZM206.65 6.74998C206.65 6.05998 206.169 5.66998 205.335 5.66998H204.256V9.35998H204.982V7.87998H205.08L206.061 9.35998H206.955L205.806 7.80998C206.042 7.77602 206.258 7.65585 206.413 7.47187C206.568 7.28788 206.652 7.05264 206.65 6.80998V6.74998Z" fill="#1A1919"/>
<path fill-rule="evenodd" clip-rule="evenodd" d="M197.916 7.52979C197.916 8.06022 197.709 8.56893 197.341 8.944C196.973 9.31907 196.474 9.52978 195.953 9.52978C195.433 9.52978 194.933 9.31907 194.565 8.944C194.197 8.56893 193.99 8.06022 193.99 7.52979C193.99 6.99935 194.197 6.49064 194.565 6.11557C194.933 5.7405 195.433 5.52979 195.953 5.52979C196.474 5.52979 196.973 5.7405 197.341 6.11557C197.709 6.49064 197.916 6.99935 197.916 7.52979Z" fill="#F58220"/>
<path d="M175.019 0.669922H145.576C145.316 0.669922 145.067 0.775279 144.882 0.962815C144.698 1.15035 144.594 1.40471 144.594 1.66992V16.3299C144.594 16.5951 144.698 16.8495 144.882 17.037C145.067 17.2246 145.316 17.3299 145.576 17.3299H175.019C175.279 17.3299 175.529 17.2246 175.713 17.037C175.897 16.8495 176 16.5951 176 16.3299V1.66992C176 1.40471 175.897 1.15035 175.713 0.962815C175.529 0.775279 175.279 0.669922 175.019 0.669922Z" fill="white" stroke="#E0E0E0" stroke-width="0.67"/>
<path fill-rule="evenodd" clip-rule="evenodd" d="M157.324 4H163.32C164.622 4 165.87 4.52678 166.79 5.46447C167.71 6.40215 168.227 7.67392 168.227 9C168.227 9.9894 167.939 10.9565 167.399 11.7789C166.859 12.6013 166.092 13.242 165.195 13.62C164.597 13.8704 163.956 13.9995 163.31 14H157.324V4Z" fill="#184977"/>
<path d="M157.324 13.5002C158.195 13.4903 159.044 13.2181 159.764 12.7176C160.484 12.2172 161.042 11.511 161.369 10.6879C161.696 9.86484 161.776 8.96165 161.6 8.09206C161.424 7.22246 161 6.42532 160.38 5.80098C159.761 5.17663 158.973 4.75299 158.119 4.58337C157.263 4.41375 156.378 4.50574 155.574 4.84775C154.769 5.18977 154.082 5.76652 153.599 6.50542C153.116 7.24432 152.858 8.11234 152.858 9.00021C152.861 9.59464 152.978 10.1827 153.205 10.7307C153.43 11.2788 153.76 11.776 154.175 12.194C154.589 12.612 155.081 12.9426 155.622 13.1667C156.162 13.3908 156.741 13.5042 157.324 13.5002Z" fill="white" stroke="#184977"/>
<path fill-rule="evenodd" clip-rule="evenodd" d="M159.306 9C159.307 8.51604 159.168 8.04264 158.904 7.64C158.64 7.23953 158.264 6.92938 157.824 6.75V11.25C158.264 11.0706 158.64 10.7605 158.904 10.36C159.168 9.95736 159.307 9.48396 159.306 9ZM156.833 11.25V6.75C156.39 6.9286 156.01 7.23861 155.743 7.63982C155.476 8.04103 155.332 8.51492 155.332 9C155.332 9.48508 155.476 9.95897 155.743 10.3602C156.01 10.7614 156.39 11.0714 156.833 11.25Z" fill="#184977"/>
<path d="M139.04 0.669922H109.597C109.336 0.669922 109.086 0.775279 108.903 0.962815C108.718 1.15035 108.615 1.40471 108.615 1.66992V16.3299C108.615 16.5951 108.718 16.8495 108.903 17.037C109.086 17.2246 109.336 17.3299 109.597 17.3299H139.04C139.3 17.3299 139.549 17.2246 139.733 17.037C139.918 16.8495 140.021 16.5951 140.021 16.3299V1.66992C140.021 1.40471 139.918 1.15035 139.733 0.962815C139.549 0.775279 139.3 0.669922 139.04 0.669922Z" fill="white" stroke="#E0E0E0" stroke-width="0.67"/>
<path d="M126.399 11.69L126.124 11.35V11.69H125.221V11.1C125.105 11.1591 124.978 11.1899 124.848 11.19H124.524V11.69H123.17L122.924 11.36L122.679 11.69H120.432V9.51H122.679L122.924 9.83L123.17 9.51H131.414V2H117.772V7.87L118.282 6.64H119.165L119.46 7.32V6.64H120.559L120.736 7.14L120.903 6.64H125.81V6.89C126.009 6.7243 126.259 6.63574 126.516 6.64H128.087L128.381 7.32V6.64H129.313L129.549 7V6.64H130.53V8.82H129.549L129.304 8.43V8.82H127.949L127.812 8.49H127.449L127.311 8.82H126.477C126.231 8.83266 125.989 8.75056 125.8 8.59V8.82H124.416L124.141 8.48V8.82H118.999L118.871 8.49H118.498L118.361 8.82H117.772V15.91H131.424V11.53C131.272 11.641 131.09 11.6973 130.903 11.69H126.399Z" fill="#0079C1"/>
<path d="M131.433 9.78019L131.276 10.1502L130.511 9.99019C130.495 9.98359 130.479 9.98019 130.462 9.98019C130.445 9.98019 130.428 9.98359 130.413 9.99019C130.404 10.0195 130.404 10.0509 130.413 10.0802C130.413 10.1173 130.427 10.1529 130.453 10.1792C130.479 10.2054 130.514 10.2202 130.55 10.2202H130.923C131.247 10.2202 131.433 10.3902 131.433 10.6902C131.447 10.7595 131.447 10.8309 131.433 10.9002C131.406 10.9699 131.362 11.0317 131.306 11.0802C131.253 11.1298 131.191 11.1678 131.124 11.1919C131.057 11.216 130.985 11.2256 130.913 11.2202H130.079V10.8502H130.982C130.988 10.8341 130.988 10.8163 130.982 10.8002C130.987 10.7805 130.987 10.7599 130.982 10.7402H130.933H130.491C130.427 10.7545 130.36 10.7545 130.295 10.7402C130.232 10.7208 130.175 10.6865 130.128 10.6402C130.078 10.5942 130.041 10.5356 130.02 10.4702C130.006 10.4077 130.006 10.3427 130.02 10.2802C130.02 10.2072 130.037 10.1352 130.069 10.0702C130.097 10.0031 130.137 9.94198 130.187 9.89019C130.241 9.84042 130.304 9.80292 130.374 9.78019C130.441 9.76533 130.512 9.76533 130.58 9.78019H131.433Z" fill="#0079C1"/>
<path d="M103.05 0.669922H73.6074C73.3471 0.669922 73.0975 0.775279 72.9134 0.962815C72.7294 1.15035 72.626 1.40471 72.626 1.66992V16.3299C72.626 16.5951 72.7294 16.8495 72.9134 17.037C73.0975 17.2246 73.3471 17.3299 73.6074 17.3299H103.05C103.31 17.3299 103.561 17.2246 103.744 17.037C103.929 16.8495 104.032 16.5951 104.032 16.3299V1.66992C104.032 1.40471 103.929 1.15035 103.744 0.962815C103.561 0.775279 103.31 0.669922 103.05 0.669922Z" fill="white" stroke="#E0E0E0" stroke-width="0.67"/>
<path d="M84.8547 14C85.8252 14 86.774 13.7068 87.5809 13.1573C88.3879 12.6079 89.0168 11.827 89.3883 10.9134C89.7597 9.99979 89.8568 8.99446 89.6675 8.02455C89.4782 7.05465 89.0108 6.16373 88.3245 5.46447C87.6382 4.76521 86.7639 4.289 85.812 4.09608C84.8601 3.90315 83.8734 4.00217 82.9767 4.3806C82.0801 4.75904 81.3137 5.39991 80.7745 6.22215C80.2353 7.0444 79.9475 8.0111 79.9475 9C79.9475 10.3261 80.4644 11.5979 81.3847 12.5355C82.305 13.4732 83.5532 14 84.8547 14Z" fill="#007BDB"/>
<path d="M91.8032 14.0001C92.7711 13.9883 93.7141 13.685 94.5132 13.1285C95.3124 12.5719 95.9322 11.7869 96.2946 10.8723C96.657 9.95773 96.7458 8.95434 96.5499 7.98842C96.3539 7.0225 95.882 6.13721 95.1935 5.44393C94.5049 4.75066 93.6304 4.28038 92.6802 4.09227C91.7299 3.90415 90.7463 4.00661 89.8531 4.38675C88.9598 4.76689 88.1968 5.40772 87.6602 6.22862C87.1235 7.04951 86.8373 8.01379 86.8372 9.00013C86.8371 9.66182 86.9659 10.3169 87.2162 10.9275C87.4666 11.5381 87.8332 12.092 88.2952 12.557C88.7571 13.0221 89.3051 13.3892 89.9072 13.6369C90.5094 13.8846 91.1538 14.0081 91.8032 14.0001Z" fill="#E42B00"/>
<path fill-rule="evenodd" clip-rule="evenodd" d="M88.3289 12.5799C89.209 11.5927 89.7348 10.3308 89.8207 8.99992C89.7348 7.66909 89.209 6.40716 88.3289 5.41992C87.8464 5.87561 87.464 6.4302 87.2069 7.04722C86.9498 7.66424 86.8238 8.32973 86.8371 8.99992C86.8257 9.66985 86.9525 10.3348 87.2095 10.9515C87.4665 11.5683 87.8479 12.1231 88.3289 12.5799Z" fill="#1740CE"/>
<path d="M67.0614 0.669922H37.6184C37.3581 0.669922 37.1084 0.775279 36.9244 0.962815C36.7403 1.15035 36.637 1.40471 36.637 1.66992V16.3299C36.637 16.5951 36.7403 16.8495 36.9244 17.037C37.1084 17.2246 37.3581 17.3299 37.6184 17.3299H67.0614C67.3216 17.3299 67.5712 17.2246 67.7553 17.037C67.9394 16.8495 68.0428 16.5951 68.0428 16.3299V1.66992C68.0428 1.40471 67.9394 1.15035 67.7553 0.962815C67.5712 0.775279 67.3216 0.669922 67.0614 0.669922Z" fill="white" stroke="#E0E0E0" stroke-width="0.67"/>
<path d="M48.8755 14.0001C49.8435 13.9883 50.7863 13.685 51.5855 13.1285C52.3848 12.5719 53.0046 11.7869 53.3669 10.8723C53.7293 9.95773 53.8182 8.95434 53.6222 7.98842C53.4263 7.0225 52.9543 6.13721 52.2657 5.44393C51.5772 4.75066 50.7028 4.28038 49.7525 4.09227C48.8023 3.90415 47.8187 4.00661 46.9254 4.38675C46.0322 4.76689 45.2692 5.40772 44.7326 6.22862C44.1959 7.04951 43.9095 8.01379 43.9094 9.00013C43.9094 9.66182 44.0383 10.3169 44.2886 10.9275C44.5388 11.5381 44.9056 12.092 45.3674 12.557C45.8294 13.0221 46.3773 13.3892 46.9795 13.6369C47.5817 13.8846 48.2262 14.0081 48.8755 14.0001Z" fill="#CC0000"/>
<path d="M55.8141 14C56.7847 14 57.7334 13.7068 58.5405 13.1573C59.3474 12.6079 59.9764 11.827 60.3478 10.9134C60.7192 9.99979 60.8164 8.99446 60.627 8.02455C60.4377 7.05465 59.9703 6.16373 59.2841 5.46447C58.5978 4.76521 57.7234 4.289 56.7715 4.09608C55.8196 3.90315 54.8329 4.00217 53.9363 4.3806C53.0396 4.75904 52.2732 5.39991 51.734 6.22215C51.1948 7.0444 50.907 8.0111 50.907 9C50.907 10.3261 51.424 11.5979 52.3443 12.5355C53.2646 13.4732 54.5127 14 55.8141 14Z" fill="#FF9900"/>
<path fill-rule="evenodd" clip-rule="evenodd" d="M52.3397 12.5799C53.2199 11.5927 53.7457 10.3308 53.8315 8.99992C53.7457 7.66909 53.2199 6.40716 52.3397 5.41992C51.8595 5.8769 51.4793 6.43195 51.2239 7.04884C50.9685 7.66572 50.8438 8.33056 50.8577 8.99992C50.8457 9.66902 50.9713 10.3333 51.2265 10.9499C51.4817 11.5665 51.861 12.1218 52.3397 12.5799Z" fill="#F16D27"/>
<path d="M31.0819 0.669922H1.6389C1.37862 0.669922 1.12898 0.775279 0.944925 0.962815C0.760871 1.15035 0.657471 1.40471 0.657471 1.66992V16.3299C0.657471 16.5951 0.760871 16.8495 0.944925 17.037C1.12898 17.2246 1.37862 17.3299 1.6389 17.3299H31.0819C31.3421 17.3299 31.5918 17.2246 31.7758 17.037C31.9599 16.8495 32.0633 16.5951 32.0633 16.3299V1.66992C32.0633 1.40471 31.9599 1.15035 31.7758 0.962815C31.5918 0.775279 31.3421 0.669922 31.0819 0.669922Z" fill="white" stroke="#E0E0E0" stroke-width="0.67"/>
<path d="M13.74 5.79996L11.0411 12.36H9.25486L7.92993 7.11996C7.91428 6.9972 7.86945 6.8802 7.79933 6.77912C7.7292 6.67804 7.6359 6.59594 7.52754 6.53996C7.00462 6.29318 6.45428 6.11186 5.88855 5.99996V5.79996H8.76415C8.94924 5.80277 9.12705 5.87383 9.26468 5.99996C9.40225 6.12604 9.49536 6.29469 9.52966 6.47996L10.2265 10.28L11.9636 5.79996H13.74ZM20.61 10.22C20.61 8.47996 18.2644 8.38996 18.2742 7.60996C18.2742 7.37996 18.5 7.12996 18.9809 7.06996C19.5397 7.01357 20.103 7.11385 20.61 7.35996L20.9143 5.99996C20.4189 5.80868 19.8935 5.71042 19.3636 5.70996C17.7246 5.70996 16.5567 6.59996 16.5469 7.87996C16.5469 8.81996 17.3713 9.34996 18.0092 9.65996C18.6472 9.96996 18.8729 10.19 18.8729 10.48C18.8729 10.92 18.3527 11.11 17.8915 11.12C17.296 11.1336 16.7075 10.9888 16.1838 10.7L15.8795 12.14C16.4714 12.3719 17.1002 12.4906 17.7344 12.49C19.4814 12.49 20.6297 11.61 20.6297 10.25L20.61 10.22ZM24.9578 12.35H26.4986L25.1541 5.79996H23.731C23.5804 5.79702 23.4327 5.84251 23.309 5.92996C23.1795 6.01225 23.0796 6.13504 23.0244 6.27996L20.5217 12.36H22.2687L22.622 11.36H24.7615L24.9578 12.35ZM23.1029 9.99996L23.9763 7.53996L24.4769 9.99996H23.1029ZM16.0954 5.79996L14.7214 12.36H13.053L14.427 5.79996H16.0954Z" fill="#1A1F71"/>
</g>
<defs>
<clipPath id="clip0_924_4099">
<rect width="370" height="18" fill="white"/>
</clipPath>
</defs>
</svg>
