<svg width="24" height="24" viewBox="0 0 24 24" fill="none" xmlns="http://www.w3.org/2000/svg">
<mask id="mask0_913_3158" style="mask-type:alpha" maskUnits="userSpaceOnUse" x="0" y="0" width="24" height="24">
<rect width="24" height="24" fill="#D9D9D9"/>
</mask>
<g mask="url(#mask0_913_3158)">
<path d="M9.526 10.6663C8.842 9.98242 8.5 9.15775 8.5 8.19225C8.5 7.22692 8.842 6.40225 9.526 5.71825C10.21 5.03425 11.0347 4.69225 12 4.69225C12.9653 4.69225 13.79 5.03425 14.474 5.71825C15.158 6.40225 15.5 7.22692 15.5 8.19225C15.5 9.15775 15.158 9.98242 14.474 10.6663C13.79 11.3503 12.9653 11.6923 12 11.6923C11.0347 11.6923 10.21 11.3503 9.526 10.6663ZM4.5 19.3078V17.0845C4.5 16.5948 4.633 16.1413 4.899 15.724C5.165 15.3067 5.5205 14.9858 5.9655 14.7615C6.95383 14.277 7.95092 13.9136 8.95675 13.6713C9.96258 13.4289 10.977 13.3078 12 13.3078C13.023 13.3078 14.0374 13.4289 15.0433 13.6713C16.0491 13.9136 17.0462 14.277 18.0345 14.7615C18.4795 14.9858 18.835 15.3067 19.101 15.724C19.367 16.1413 19.5 16.5948 19.5 17.0845V19.3078H4.5ZM6 17.8078H18V17.0845C18 16.882 17.9413 16.6945 17.824 16.522C17.7067 16.3497 17.5474 16.209 17.3462 16.1C16.4846 15.6757 15.6061 15.3542 14.7107 15.1355C13.8152 14.917 12.9117 14.8078 12 14.8078C11.0883 14.8078 10.1848 14.917 9.28925 15.1355C8.39392 15.3542 7.51542 15.6757 6.65375 16.1C6.45258 16.209 6.29333 16.3497 6.176 16.522C6.05867 16.6945 6 16.882 6 17.0845V17.8078ZM13.4125 9.60475C13.8042 9.21309 14 8.74225 14 8.19225C14 7.64225 13.8042 7.17142 13.4125 6.77975C13.0208 6.38809 12.55 6.19225 12 6.19225C11.45 6.19225 10.9792 6.38809 10.5875 6.77975C10.1958 7.17142 10 7.64225 10 8.19225C10 8.74225 10.1958 9.21309 10.5875 9.60475C10.9792 9.99642 11.45 10.1923 12 10.1923C12.55 10.1923 13.0208 9.99642 13.4125 9.60475Z" fill="#827C6F"/>
</g>
</svg>
