<svg width="24" height="24" viewBox="0 0 24 24" fill="none" xmlns="http://www.w3.org/2000/svg">
<mask id="mask0_959_4147" style="mask-type:alpha" maskUnits="userSpaceOnUse" x="0" y="0" width="24" height="24">
<rect width="24" height="24" fill="#D9D9D9"/>
</mask>
<g mask="url(#mask0_959_4147)">
<path d="M12.5635 19.3077H4.5V17.0845C4.5 16.5948 4.633 16.1413 4.899 15.724C5.165 15.3067 5.5205 14.9858 5.9655 14.7615C6.95383 14.277 7.95092 13.9136 8.95675 13.6712C9.96258 13.4289 10.977 13.3077 12 13.3077V14.8077C11.0883 14.8077 10.1848 14.917 9.28925 15.1355C8.39392 15.3542 7.51542 15.6757 6.65375 16.1C6.45258 16.209 6.29333 16.3497 6.176 16.522C6.05867 16.6945 6 16.882 6 17.0845V17.8077H12.1058C12.1528 18.0702 12.2143 18.3265 12.2905 18.5765C12.3668 18.8265 12.4578 19.0702 12.5635 19.3077ZM17.8462 21.5C16.7321 21.2257 15.8446 20.6126 15.1837 19.6607C14.5227 18.7087 14.1923 17.6494 14.1923 16.4827V14.1427L17.8462 12.3077L21.5 14.1437V16.4847C21.5 17.6474 21.1695 18.7054 20.5085 19.6587C19.8477 20.6119 18.9602 21.2257 17.8462 21.5ZM17.8462 19.948C18.5307 19.6737 19.0624 19.2137 19.4413 18.5682C19.8201 17.9227 20.0095 17.2276 20.0095 16.4827V15.0672L17.8462 13.9902L15.6827 15.0672V16.4827C15.6827 17.2276 15.8722 17.9227 16.251 18.5682C16.6298 19.2137 17.1616 19.6737 17.8462 19.948ZM9.526 10.6662C8.842 9.98241 8.5 9.15775 8.5 8.19225C8.5 7.22691 8.842 6.40224 9.526 5.71824C10.21 5.03424 11.0347 4.69225 12 4.69225C12.9653 4.69225 13.79 5.03424 14.474 5.71824C15.158 6.40224 15.5 7.22691 15.5 8.19225C15.5 9.15775 15.158 9.98241 14.474 10.6662C13.79 11.3502 12.9653 11.6922 12 11.6922C11.0347 11.6922 10.21 11.3502 9.526 10.6662ZM13.4125 9.60475C13.8042 9.21308 14 8.74225 14 8.19225C14 7.64225 13.8042 7.17141 13.4125 6.77975C13.0208 6.38808 12.55 6.19225 12 6.19225C11.45 6.19225 10.9792 6.38808 10.5875 6.77975C10.1958 7.17141 10 7.64225 10 8.19225C10 8.74225 10.1958 9.21308 10.5875 9.60475C10.9792 9.99641 11.45 10.1922 12 10.1922C12.55 10.1922 13.0208 9.99641 13.4125 9.60475Z" fill="#827C6F"/>
</g>
</svg>
