<svg width="20" height="20" viewBox="0 0 20 20" fill="none" xmlns="http://www.w3.org/2000/svg">
<mask id="mask0_913_3147" style="mask-type:alpha" maskUnits="userSpaceOnUse" x="0" y="0" width="20" height="20">
<rect width="20" height="20" fill="#D9D9D9"/>
</mask>
<g mask="url(#mask0_913_3147)">
<path d="M8.52171 10.645C8.11837 10.2417 7.91671 9.74889 7.91671 9.16667V4.16667C7.91671 3.58445 8.11837 3.09167 8.52171 2.68834C8.92504 2.285 9.41782 2.08334 10 2.08334C10.5823 2.08334 11.075 2.285 11.4784 2.68834C11.8817 3.09167 12.0834 3.58445 12.0834 4.16667V9.16667C12.0834 9.74889 11.8817 10.2417 11.4784 10.645C11.075 11.0483 10.5823 11.25 10 11.25C9.41782 11.25 8.92504 11.0483 8.52171 10.645ZM9.37504 17.2917V14.5448C8.00004 14.3877 6.85768 13.798 5.94796 12.7756C5.03824 11.7531 4.58337 10.5501 4.58337 9.16667H5.83337C5.83337 10.3194 6.23962 11.3021 7.05212 12.1146C7.86462 12.9271 8.84726 13.3333 10 13.3333C11.1528 13.3333 12.1355 12.9271 12.948 12.1146C13.7605 11.3021 14.1667 10.3194 14.1667 9.16667H15.4167C15.4167 10.5501 14.9618 11.7531 14.0521 12.7756C13.1424 13.798 12 14.3877 10.625 14.5448V17.2917H9.37504ZM10.5938 9.76042C10.7535 9.6007 10.8334 9.40278 10.8334 9.16667V4.16667C10.8334 3.93056 10.7535 3.73264 10.5938 3.57292C10.4341 3.4132 10.2362 3.33334 10 3.33334C9.76393 3.33334 9.56601 3.4132 9.40629 3.57292C9.24657 3.73264 9.16671 3.93056 9.16671 4.16667V9.16667C9.16671 9.40278 9.24657 9.6007 9.40629 9.76042C9.56601 9.92014 9.76393 10 10 10C10.2362 10 10.4341 9.92014 10.5938 9.76042Z" fill="#827C6F"/>
</g>
</svg>
