<svg width="24" height="24" viewBox="0 0 24 24" fill="none" xmlns="http://www.w3.org/2000/svg">
<mask id="mask0_959_4162" style="mask-type:alpha" maskUnits="userSpaceOnUse" x="0" y="0" width="24" height="24">
<rect width="24" height="24" fill="#D9D9D9"/>
</mask>
<g mask="url(#mask0_959_4162)">
<path d="M18.125 13.75V10.75H15.125V9.25H18.125V6.25H19.625V9.25H22.625V10.75H19.625V13.75H18.125ZM6.526 10.6662C5.842 9.98241 5.5 9.15775 5.5 8.19225C5.5 7.22691 5.842 6.40224 6.526 5.71824C7.21 5.03424 8.03467 4.69225 9 4.69225C9.96533 4.69225 10.79 5.03424 11.474 5.71824C12.158 6.40224 12.5 7.22691 12.5 8.19225C12.5 9.15775 12.158 9.98241 11.474 10.6662C10.79 11.3502 9.96533 11.6922 9 11.6922C8.03467 11.6922 7.21 11.3502 6.526 10.6662ZM1.5 19.3077V17.0845C1.5 16.5948 1.633 16.1413 1.899 15.724C2.165 15.3067 2.5205 14.9858 2.9655 14.7615C3.95383 14.277 4.95092 13.9136 5.95675 13.6712C6.96258 13.4289 7.977 13.3077 9 13.3077C10.023 13.3077 11.0374 13.4289 12.0433 13.6712C13.0491 13.9136 14.0462 14.277 15.0345 14.7615C15.4795 14.9858 15.835 15.3067 16.101 15.724C16.367 16.1413 16.5 16.5948 16.5 17.0845V19.3077H1.5ZM3 17.8077H15V17.0845C15 16.882 14.9413 16.6945 14.824 16.522C14.7067 16.3497 14.5474 16.209 14.3462 16.1C13.4846 15.6757 12.6061 15.3542 11.7107 15.1355C10.8152 14.917 9.91167 14.8077 9 14.8077C8.08833 14.8077 7.18475 14.917 6.28925 15.1355C5.39392 15.3542 4.51542 15.6757 3.65375 16.1C3.45258 16.209 3.29333 16.3497 3.176 16.522C3.05867 16.6945 3 16.882 3 17.0845V17.8077ZM10.4125 9.60475C10.8042 9.21308 11 8.74225 11 8.19225C11 7.64225 10.8042 7.17141 10.4125 6.77975C10.0208 6.38808 9.55 6.19225 9 6.19225C8.45 6.19225 7.97917 6.38808 7.5875 6.77975C7.19583 7.17141 7 7.64225 7 8.19225C7 8.74225 7.19583 9.21308 7.5875 9.60475C7.97917 9.99641 8.45 10.1922 9 10.1922C9.55 10.1922 10.0208 9.99641 10.4125 9.60475Z" fill="#827C6F"/>
</g>
</svg>
