<svg width="20" height="20" viewBox="0 0 20 20" fill="none" xmlns="http://www.w3.org/2000/svg">
<mask id="mask0_924_3308" style="mask-type:alpha" maskUnits="userSpaceOnUse" x="0" y="0" width="20" height="20">
<rect width="20" height="20" fill="#D9D9D9"/>
</mask>
<g mask="url(#mask0_924_3308)">
<path d="M10 16.939L9.08022 16.1121C7.69883 14.8589 6.55647 13.782 5.65314 12.8815C4.7498 11.9808 4.03397 11.1792 3.50564 10.4767C2.9773 9.77431 2.6082 9.13354 2.39834 8.55437C2.18834 7.97535 2.08334 7.38778 2.08334 6.79167C2.08334 5.60903 2.48209 4.61889 3.27959 3.82125C4.07723 3.02375 5.06737 2.625 6.25001 2.625C6.97751 2.625 7.66501 2.79514 8.31251 3.13542C8.96001 3.47569 9.52251 3.96368 10 4.59938C10.4775 3.96368 11.04 3.47569 11.6875 3.13542C12.335 2.79514 13.0225 2.625 13.75 2.625C14.9326 2.625 15.9228 3.02375 16.7204 3.82125C17.5179 4.61889 17.9167 5.60903 17.9167 6.79167C17.9167 7.38778 17.8117 7.97535 17.6017 8.55437C17.3918 9.13354 17.0227 9.77431 16.4944 10.4767C15.9661 11.1792 15.2515 11.9808 14.3508 12.8815C13.4503 13.782 12.3066 14.8589 10.9198 16.1121L10 16.939ZM10 15.25C11.3333 14.0503 12.4306 13.0219 13.2917 12.165C14.1528 11.3082 14.8333 10.5638 15.3333 9.93188C15.8333 9.29993 16.1806 8.73875 16.375 8.24833C16.5695 7.75806 16.6667 7.2725 16.6667 6.79167C16.6667 5.95833 16.3889 5.26389 15.8333 4.70833C15.2778 4.15278 14.5833 3.875 13.75 3.875C13.092 3.875 12.4838 4.06167 11.9254 4.435C11.3672 4.80847 10.9252 5.32799 10.5994 5.99354H9.40064C9.06939 5.32257 8.62598 4.80174 8.07043 4.43104C7.51487 4.06035 6.90807 3.875 6.25001 3.875C5.42195 3.875 4.72883 4.15278 4.17064 4.70833C3.61244 5.26389 3.33334 5.95833 3.33334 6.79167C3.33334 7.2725 3.43057 7.75806 3.62501 8.24833C3.81945 8.73875 4.16668 9.29993 4.66668 9.93188C5.16668 10.5638 5.84723 11.3069 6.70834 12.161C7.56945 13.0152 8.66668 14.0449 10 15.25Z" fill="#1C1B1F"/>
</g>
</svg>
