<svg width="24" height="24" viewBox="0 0 24 24" fill="none" xmlns="http://www.w3.org/2000/svg">
<path fill-rule="evenodd" clip-rule="evenodd" d="M22.293 6.6945C21.6825 5.6415 21.021 5.448 19.6725 5.3745C18.3255 5.286 14.937 5.25 12.003 5.25C9.063 5.25 5.673 5.286 4.3275 5.3745C2.982 5.4495 2.319 5.6415 1.7025 6.6945C1.074 7.7475 0.75 9.558 0.75 12.747V12.759C0.75 15.9345 1.074 17.7585 1.7025 18.798C2.3175 19.8495 2.9805 20.0415 4.3275 20.13C5.673 20.205 9.0615 20.25 12.003 20.25C14.937 20.25 18.3255 20.205 19.674 20.13C21.0225 20.0415 21.684 19.8495 22.2945 18.798C22.9305 17.757 23.2515 15.933 23.2515 12.759V12.747C23.25 9.558 22.9305 7.7475 22.293 6.6945Z" stroke="#A1A1A1" stroke-miterlimit="10" stroke-linecap="round" stroke-linejoin="round"/>
<path fill-rule="evenodd" clip-rule="evenodd" d="M9.75 16.5V9L15.75 12.75L9.75 16.5Z" stroke="#A1A1A1" stroke-miterlimit="10" stroke-linecap="round" stroke-linejoin="round"/>
</svg>
